Coordinates
version=1
nRows=38
nColumns=38
inDegrees=no

Units are S.I. units (second, meters, Newtons, ...)
If the header above contains a line with 'inDegrees', this indicates whether rotational values are in degrees (yes) or radians (no).

endheader
time	pelvis_tilt	pelvis_list	pelvis_rotation	pelvis_tx	pelvis_ty	pelvis_tz	hip_flexion_r	hip_adduction_r	hip_rotation_r	knee_angle_r	ankle_angle_r	subtalar_angle_r	mtp_angle_r	hip_flexion_l	hip_adduction_l	hip_rotation_l	knee_angle_l	ankle_angle_l	subtalar_angle_l	mtp_angle_l	lumbar_extension	lumbar_bending	lumbar_rotation	arm_flex_r	arm_add_r	arm_rot_r	elbow_flex_r	pro_sup_r	wrist_flex_r	wrist_dev_r	arm_flex_l	arm_add_l	arm_rot_l	elbow_flex_l	pro_sup_l	wrist_flex_l	wrist_dev_l
1.06	2.89703	1.43539	-1.30079	0.705413	0.4109	1.00431	0.367788	0.0571043	-0.227504	0.547758	-0.279503	0	0	-0.307483	-0.0349279	-0.393569	0.605396	-0.121682	0	0	-0.298797	0.219133	0.261497	-0.315467	-0.691398	-0.181687	1.83355	0.307549	0	0	0.495592	-0.461167	0.581472	1.14128	0.629513	0	0
1.07	2.87073	1.43251	-1.27577	0.706088	0.422315	1.00415	0.367881	0.063187	-0.21922	0.567567	-0.29246	0	0	-0.296748	-0.0465959	-0.384973	0.657672	-0.126193	0	0	-0.303106	0.225164	0.26474	-0.314203	-0.691765	-0.182769	1.83282	0.306739	0	0	0.493236	-0.460041	0.579411	1.14154	0.632178	0	0
1.08	2.85117	1.43071	-1.25906	0.707105	0.43353	1.00411	0.369857	0.0699375	-0.202194	0.59163	-0.296342	0	0	-0.28173	-0.0569011	-0.374148	0.714331	-0.134143	0	0	-0.307056	0.228639	0.269398	-0.312406	-0.691908	-0.182198	1.83159	0.306189	0	0	0.491998	-0.459799	0.578708	1.1418	0.635714	0	0
1.09	2.8354	1.42938	-1.24622	0.708356	0.444643	1.00423	0.372133	0.0777024	-0.178717	0.616892	-0.295818	0	0	-0.262976	-0.0667351	-0.360497	0.77449	-0.14643	0	0	-0.310798	0.230538	0.274261	-0.310445	-0.692491	-0.179527	1.82982	0.30834	0	0	0.491551	-0.460038	0.578601	1.14186	0.638669	0	0
1.1	2.82452	1.42534	-1.23645	0.709673	0.455619	1.00481	0.368831	0.085954	-0.159433	0.638622	-0.290876	0	0	-0.244182	-0.0772668	-0.343691	0.835575	-0.162834	0	0	-0.317604	0.232441	0.277888	-0.308089	-0.692453	-0.176744	1.82834	0.31129	0	0	0.492477	-0.460729	0.579263	1.14202	0.639347	0	0
1.11	2.81561	1.41902	-1.22651	0.710906	0.466483	1.0058	0.359297	0.0928396	-0.152192	0.652448	-0.284111	0	0	-0.225367	-0.0881983	-0.323748	0.895455	-0.182851	0	0	-0.326692	0.235064	0.280103	-0.306386	-0.691793	-0.175916	1.82778	0.31348	0	0	0.49462	-0.461836	0.580947	1.14254	0.638597	0	0
1.12	2.80406	1.41277	-1.21271	0.712011	0.477206	1.00692	0.346199	0.098313	-0.154692	0.657885	-0.276708	0	0	-0.204899	-0.0983028	-0.300398	0.952523	-0.202445	0	0	-0.335324	0.238402	0.281741	-0.30587	-0.690999	-0.177049	1.82813	0.314458	0	0	0.497481	-0.462912	0.58359	1.14312	0.637746	0	0
1.13	2.78888	1.4083	-1.19506	0.713022	0.487749	1.00795	0.332887	0.102886	-0.16143	0.658745	-0.268302	0	0	-0.182256	-0.106376	-0.27395	1.00572	-0.214434	0	0	-0.34169	0.241911	0.283528	-0.30661	-0.690201	-0.179406	1.82929	0.31413	0	0	0.500552	-0.463706	0.586614	1.14353	0.637137	0	0
1.14	2.77387	1.40608	-1.1782	0.714009	0.498109	1.00883	0.321721	0.106295	-0.16867	0.660199	-0.259171	0	0	-0.158456	-0.111732	-0.247141	1.05417	-0.211557	0	0	-0.3457	0.244372	0.286113	-0.308438	-0.690317	-0.180874	1.83095	0.313988	0	0	0.503832	-0.464088	0.589816	1.14376	0.635828	0	0
1.15	2.76467	1.4057	-1.16869	0.715092	0.508296	1.00966	0.312935	0.10843	-0.17376	0.66401	-0.249581	0	0	-0.134909	-0.114198	-0.223978	1.09752	-0.192263	0	0	-0.348419	0.244592	0.289751	-0.310336	-0.690303	-0.182319	1.8325	0.313506	0	0	0.506996	-0.464638	0.59291	1.14429	0.634096	0	0
1.16	2.76601	1.40635	-1.17151	0.716282	0.51833	1.01062	0.305064	0.109162	-0.176406	0.669008	-0.239086	0	0	-0.112121	-0.113293	-0.206549	1.13531	-0.16425	0	0	-0.351184	0.242006	0.294624	-0.312124	-0.68951	-0.184338	1.83376	0.312232	0	0	0.510189	-0.465351	0.595834	1.14509	0.631419	0	0
1.17	2.77931	1.40668	-1.18769	0.717543	0.528161	1.0119	0.295999	0.108787	-0.176976	0.673104	-0.231101	0	0	-0.0902979	-0.109256	-0.194505	1.16757	-0.139965	0	0	-0.355598	0.237069	0.299993	-0.312588	-0.688947	-0.185388	1.83474	0.310717	0	0	0.513115	-0.466307	0.597499	1.1464	0.629387	0	0
1.18	2.80004	1.40688	-1.21179	0.718797	0.537849	1.01343	0.285836	0.107903	-0.175752	0.675708	-0.223443	0	0	-0.0680964	-0.103227	-0.185885	1.19592	-0.118333	0	0	-0.36068	0.23073	0.30533	-0.312567	-0.688271	-0.186206	1.83575	0.309371	0	0	0.516078	-0.46729	0.598708	1.14779	0.628119	0	0
1.19	2.82705	1.40661	-1.24199	0.719986	0.54749	1.01516	0.274062	0.106633	-0.172568	0.676796	-0.216023	0	0	-0.0462276	-0.0961951	-0.17895	1.2202	-0.100038	0	0	-0.366142	0.223538	0.310194	-0.312298	-0.687581	-0.186843	1.83657	0.308056	0	0	0.519072	-0.468084	0.599696	1.14885	0.627939	0	0
1.2	2.85654	1.40621	-1.27453	0.721089	0.55717	1.017	0.261425	0.105053	-0.167761	0.676572	-0.209051	0	0	-0.0247894	-0.0888297	-0.172745	1.23986	-0.0843319	0	0	-0.371105	0.216096	0.314603	-0.311878	-0.686917	-0.187137	1.83698	0.306886	0	0	0.521918	-0.468763	0.600918	1.14942	0.627159	0	0
1.21	2.88403	1.40618	-1.30491	0.722048	0.566935	1.01885	0.248535	0.103129	-0.162585	0.674807	-0.202773	0	0	-0.00318984	-0.0818195	-0.166778	1.25496	-0.0707751	0	0	-0.37463	0.209161	0.318507	-0.311533	-0.686089	-0.187164	1.83688	0.306002	0	0	0.524227	-0.469285	0.602323	1.1493	0.625717	0	0
1.22	2.90655	1.40677	-1.33045	0.722946	0.576798	1.02066	0.235336	0.101632	-0.158007	0.671339	-0.196556	0	0	0.0190796	-0.0759038	-0.161329	1.26526	-0.0599757	0	0	-0.376453	0.203066	0.322409	-0.311434	-0.685225	-0.186935	1.83631	0.305286	0	0	0.525873	-0.469444	0.60357	1.14843	0.624221	0	0
1.23	2.92487	1.40772	-1.35183	0.723802	0.586734	1.02244	0.221628	0.100733	-0.154552	0.666208	-0.190159	0	0	0.0415419	-0.0711934	-0.156183	1.27042	-0.0526503	0	0	-0.377105	0.19779	0.326359	-0.311577	-0.684447	-0.186594	1.8356	0.304537	0	0	0.526969	-0.469181	0.604601	1.14699	0.623079	0	0
1.24	2.9391	1.40894	-1.36934	0.724638	0.596737	1.02416	0.207974	0.100653	-0.151738	0.660053	-0.183852	0	0	0.0638448	-0.0680981	-0.152136	1.27044	-0.0482118	0	0	-0.376907	0.193303	0.330387	-0.311723	-0.683767	-0.186117	1.8349	0.304346	0	0	0.527394	-0.468991	0.605335	1.14568	0.622624	0	0
1.25	2.95094	1.41042	-1.38496	0.725456	0.606785	1.02583	0.194295	0.10115	-0.14877	0.652229	-0.178071	0	0	0.0857016	-0.0666062	-0.150379	1.26552	-0.0457854	0	0	-0.3759	0.189163	0.334601	-0.311405	-0.683005	-0.185163	1.83362	0.304706	0	0	0.527225	-0.468914	0.605767	1.1444	0.622656	0	0
1.26	2.96417	1.41133	-1.4023	0.726215	0.61686	1.02752	0.179571	0.10136	-0.146692	0.643662	-0.172463	0	0	0.105791	-0.0660458	-0.151255	1.25586	-0.0442884	0	0	-0.37504	0.184968	0.33877	-0.310611	-0.6824	-0.183707	1.83186	0.30541	0	0	0.526654	-0.468797	0.605727	1.14304	0.623287	0	0
1.27	2.97908	1.41128	-1.4217	0.726915	0.626962	1.02924	0.163614	0.100698	-0.146169	0.635365	-0.16773	0	0	0.123541	-0.0663957	-0.155054	1.24193	-0.0435915	0	0	-0.375001	0.180775	0.343002	-0.309496	-0.68198	-0.182023	1.83011	0.306176	0	0	0.525444	-0.468541	0.604719	1.14198	0.623855	0	0
1.28	2.9949	1.41056	-1.44264	0.727578	0.637088	1.03093	0.146877	0.0989908	-0.146202	0.626836	-0.163502	0	0	0.139354	-0.0679319	-0.163058	1.22336	-0.0437648	0	0	-0.375812	0.176484	0.347573	-0.308218	-0.681664	-0.18045	1.82871	0.307008	0	0	0.523504	-0.468416	0.602709	1.14187	0.62422	0	0
1.29	3.01052	1.40917	-1.46388	0.728231	0.647225	1.03257	0.129224	0.0966707	-0.146548	0.617653	-0.159889	0	0	0.153434	-0.0712468	-0.176385	1.20052	-0.0456743	0	0	-0.377177	0.172143	0.352396	-0.306738	-0.681576	-0.178768	1.82749	0.307937	0	0	0.521308	-0.468479	0.600283	1.14221	0.624973	0	0
1.3	3.02598	1.40704	-1.48511	0.728866	0.657353	1.03416	0.110611	0.0939598	-0.147536	0.608233	-0.15645	0	0	0.165362	-0.0764933	-0.194262	1.17488	-0.0502259	0	0	-0.379087	0.167792	0.357261	-0.305266	-0.681595	-0.177215	1.82654	0.308962	0	0	0.519222	-0.468668	0.597865	1.14273	0.626055	0	0
1.31	3.03957	1.40469	-1.50444	0.729454	0.667479	1.03564	0.091869	0.0910878	-0.149205	0.59917	-0.15321	0	0	0.176042	-0.0829627	-0.21538	1.14669	-0.0573598	0	0	-0.381036	0.163799	0.362166	-0.304214	-0.681479	-0.176275	1.82612	0.310266	0	0	0.517094	-0.468947	0.595517	1.14362	0.627245	0	0
1.32	3.04964	1.40231	-1.52029	0.729969	0.677609	1.03696	0.073309	0.0882985	-0.151511	0.590262	-0.150295	0	0	0.185455	-0.0902869	-0.238951	1.11691	-0.0656387	0	0	-0.382807	0.160493	0.367273	-0.303622	-0.681556	-0.175765	1.82615	0.311756	0	0	0.515037	-0.469057	0.593307	1.14452	0.628285	0	0
1.33	3.05792	1.40003	-1.53439	0.730367	0.687789	1.0382	0.0544113	0.0854335	-0.154539	0.58022	-0.147702	0	0	0.192967	-0.0989104	-0.267852	1.08367	-0.0753822	0	0	-0.384203	0.157659	0.372473	-0.303489	-0.681946	-0.175431	1.82628	0.313169	0	0	0.51292	-0.468524	0.591005	1.14462	0.629338	0	0
1.34	3.06387	1.3985	-1.54584	0.730653	0.697996	1.03926	0.036433	0.0826247	-0.158542	0.570474	-0.145297	0	0	0.199471	-0.107037	-0.297905	1.04631	-0.0864034	0	0	-0.384773	0.155508	0.377411	-0.303994	-0.682244	-0.175721	1.82693	0.314585	0	0	0.510578	-0.467914	0.588657	1.14476	0.629751	0	0
1.35	3.06718	1.39796	-1.55366	0.730786	0.70813	1.04006	0.0197536	0.08025	-0.163353	0.561251	-0.142812	0	0	0.205614	-0.112964	-0.323578	1.0051	-0.0973877	0	0	-0.384192	0.154207	0.381473	-0.304695	-0.681902	-0.176862	1.82782	0.316008	0	0	0.508311	-0.467448	0.586355	1.14519	0.629962	0	0
1.36	3.06863	1.39818	-1.55868	0.730822	0.718275	1.04066	0.00401285	0.0782756	-0.168712	0.551989	-0.140313	0	0	0.210895	-0.11686	-0.345699	0.960112	-0.108228	0	0	-0.382325	0.153545	0.384662	-0.305354	-0.681166	-0.17804	1.82832	0.317091	0	0	0.506286	-0.467046	0.584544	1.1453	0.63062	0	0
1.37	3.06861	1.39908	-1.56113	0.730702	0.728421	1.04109	-0.0108279	0.0765668	-0.173547	0.542622	-0.138114	0	0	0.215337	-0.118462	-0.363953	0.911228	-0.119082	0	0	-0.379366	0.153588	0.38689	-0.306091	-0.680879	-0.178368	1.82863	0.318674	0	0	0.504619	-0.466502	0.58341	1.14483	0.631253	0	0
1.38	3.06746	1.40077	-1.56148	0.730413	0.738559	1.04132	-0.0244841	0.0751979	-0.176764	0.533682	-0.136093	0	0	0.21926	-0.117823	-0.378717	0.858769	-0.129793	0	0	-0.375245	0.15428	0.38812	-0.30671	-0.680597	-0.178532	1.82861	0.320224	0	0	0.502942	-0.465614	0.582275	1.14389	0.631238	0	0
1.39	3.0661	1.40314	-1.56082	0.73	0.748665	1.04134	-0.0369462	0.0741944	-0.178264	0.525893	-0.133819	0	0	0.222432	-0.114783	-0.389068	0.803076	-0.139856	0	0	-0.370176	0.15527	0.38834	-0.306817	-0.680102	-0.178418	1.82807	0.321659	0	0	0.501422	-0.464736	0.581223	1.14257	0.63092	0	0
1.4	3.06487	1.40641	-1.5597	0.7295	0.758713	1.04114	-0.0476947	0.0733371	-0.178	0.519478	-0.131221	0	0	0.225411	-0.109637	-0.395609	0.744083	-0.149821	0	0	-0.36396	0.156381	0.387616	-0.306233	-0.679277	-0.177869	1.82693	0.323181	0	0	0.500102	-0.464224	0.580455	1.14105	0.630858	0	0
1.41	3.06483	1.41056	-1.55892	0.728934	0.768732	1.04071	-0.0568278	0.0724877	-0.177019	0.514367	-0.127714	0	0	0.228267	-0.102134	-0.397764	0.682405	-0.161512	0	0	-0.356484	0.157441	0.385582	-0.304753	-0.678126	-0.176441	1.82506	0.325449	0	0	0.498757	-0.464083	0.579533	1.13948	0.630564	0	0
1.42	3.06365	1.41579	-1.55649	0.72824	0.77875	1.03999	-0.0640362	0.0717242	-0.175165	0.510627	-0.123894	0	0	0.231481	-0.0931359	-0.396785	0.619673	-0.173425	0	0	-0.347825	0.158946	0.382744	-0.303094	-0.677032	-0.174693	1.82323	0.327467	0	0	0.496968	-0.464135	0.578213	1.13835	0.630087	0	0
1.43	3.06074	1.4217	-1.55198	0.727419	0.788771	1.03902	-0.0696107	0.0710569	-0.17266	0.508773	-0.119888	0	0	0.234287	-0.0829398	-0.392418	0.557075	-0.185719	0	0	-0.338011	0.160875	0.379385	-0.301199	-0.676207	-0.172399	1.82088	0.328982	0	0	0.495169	-0.463885	0.576982	1.13663	0.629828	0	0
